# xmcd CD database file
# Copyright (C) 1993-1998 Ti Kan
#
# Track frame offsets:
#	150
#	15142
#	29831
#	45614
#	60517
#	76928
#	95580
#	109362
#	122610
#	140153
#	158421
#	173476
#	190709
#	208157
#
# Disc length: 2917 seconds
#
# Revision: 1
# Processed by: cddbd v1.4b41PL1 Copyright (c) Steve Scherf et al.
# Submitted via: CDValet v3.31 - Copyright (c) 1997 Greg Leichner
#
DISCID=b20b630e
DTITLE=Various Artist - Hot Hits Country Vol. 71
DYEAR=1900
DGENRE=
TTITLE0=Honky Tonk Truth - Brooks and Dunn
TTITLE1=Today My World Slipped Away - George Strait
TTITLE2=Land Of The Living - Pam Tillis
TTITLE3=The Rest Of Mine - Trace Adkins
TTITLE4=From Here To Eternity - Michael Peterson
TTITLE5=Love Travels - Kathy Mattea
TTITLE6=Good Ol Fashioned Love  - Tracy Byrd
TTITLE7=Blink Of An Eye - Ricochet
TTITLE8=One Solitary Tear - Sherrie Austin
TTITLE9=The Call - Little Texas
TTITLE10=That Train Don't Run - Matraca Berg 
TTITLE11=Fire Down Below - Mark Collie, Aaron Tippin, Jeff Wood
TTITLE12=Hand Of Fate - Sons Of The Desert
TTITLE13=Living In A House Full Of Love - Gary Allan
EXTD=
EXTT0=
EXTT1=
EXTT2=
EXTT3=
EXTT4=
EXTT5=
EXTT6=
EXTT7=
EXTT8=
EXTT9=
EXTT10=
EXTT11=
EXTT12=
EXTT13=
PLAYORDER=
